ffmpeg version 4.2.7-0ubuntu0.1 Copyright (c) 2000-2022 the FFmpeg developers
  built with gcc 9 (Ubuntu 9.4.0-1ubuntu1~20.04.1)
  configuration: --prefix=/usr --extra-version=0ubuntu0.1 --toolchain=hardened --libdir=/usr/lib/x86_64-linux-gnu --incdir=/usr/include/x86_64-linux-gnu --arch=amd64 --enable-gpl --disable-stripping --enable-avresample --disable-filter=resample --enable-avisynth --enable-gnutls --enable-ladspa --enable-libaom --enable-libass --enable-libbluray --enable-libbs2b --enable-libcaca --enable-libcdio --enable-libcodec2 --enable-libflite --enable-libfontconfig --enable-libfreetype --enable-libfribidi --enable-libgme --enable-libgsm --enable-libjack --enable-libmp3lame --enable-libmysofa --enable-libopenjpeg --enable-libopenmpt --enable-libopus --enable-libpulse --enable-librsvg --enable-librubberband --enable-libshine --enable-libsnappy --enable-libsoxr --enable-libspeex --enable-libssh --enable-libtheora --enable-libtwolame --enable-libvidstab --enable-libvorbis --enable-libvpx --enable-libwavpack --enable-libwebp --enable-libx265 --enable-libxml2 --enable-libxvid --enable-libzmq --enable-libzvbi --enable-lv2 --enable-omx --enable-openal --enable-opencl --enable-opengl --enable-sdl2 --enable-libdc1394 --enable-libdrm --enable-libiec61883 --enable-nvenc --enable-chromaprint --enable-frei0r --enable-libx264 --enable-shared
  libavutil      56. 31.100 / 56. 31.100
  libavcodec     58. 54.100 / 58. 54.100
  libavformat    58. 29.100 / 58. 29.100
  libavdevice    58.  8.100 / 58.  8.100
  libavfilter     7. 57.100 /  7. 57.100
  libavresample   4.  0.  0 /  4.  0.  0
  libswscale      5.  5.100 /  5.  5.100
  libswresample   3.  5.100 /  3.  5.100
  libpostproc    55.  5.100 / 55.  5.100
Routing option strict to both codec and muxer layer
[h264 @ 0x56471ee6b000] Reinit context to 720x1280, pix_fmt: yuv420p
Input #0, mov,mp4,m4a,3gp,3g2,mj2, from '/var/www/html/project/media/video/original/lv_0_20221122180324.mp4':
  Metadata:
    major_brand     : isom
    minor_version   : 512
    compatible_brands: isomiso2avc1mp41
    Hw              : 1
                    : 
    LvMetaInfo      : {"data":{"appVersion":"7.0.0","capabilityName":"","ccTtVid":"","draftInfo":{"adjust":0,"aiMatting":0,"audioToText":0,"chroma":0,"coverTemplateId":"","curveSpeed":0,"faceEffectId":"","filterId":"","gameplayAlgorithm":"","graphs":0,"keyframe":0,"mask":0,"mi
    bitRate         : 4000000
                    : 
    copyright       : 3a69b11412c297619a7e065576883210
    maxrate         : 30000000
                    : 
    te_is_reencode  : 1
                    : 
    encoder         : bytevehwavc
  Duration: 00:00:19.04, start: 0.000000, bitrate: 3831 kb/s
    Stream #0:0(und): Video: h264 (High), 1 reference frame (avc1 / 0x31637661), yuv420p(tv, bt709, left), 720x1272 (720x1280), 3704 kb/s, 30 fps, 30 tbr, 1000k tbn, 2000k tbc (default)
    Metadata:
      handler_name    : VideoHandler
    Stream #0:1(und): Audio: aac (LC) (mp4a / 0x6134706D), 44100 Hz, stereo, fltp, 128 kb/s (default)
    Metadata:
      handler_name    : SoundHandler
Input #1, png_pipe, from '/var/www/html/project/static/images/templates/logo_vertical.png':
  Duration: N/A, bitrate: N/A
    Stream #1:0: Video: png, 1 reference frame, rgba(pc), 1920x1080 [SAR 2835:2835 DAR 16:9], 25 tbr, 25 tbn, 25 tbc
[Parsed_scale_1 @ 0x56471ee6c000] w:1280 h:720 flags:'bilinear' interl:0
[Parsed_scale_4 @ 0x56471ee88ac0] w:-1 h:720 flags:'bilinear' interl:0
[Parsed_scale_6 @ 0x56471ee6f080] w:1280 h:720 flags:'bilinear' interl:0
Stream mapping:
  Stream #0:0 (h264) -> split (graph 0)
  Stream #1:0 (png) -> scale (graph 0)
  overlay (graph 0) -> Stream #0:0 (libx264)
  Stream #0:1 -> #0:1 (aac (native) -> aac (native))
Press [q] to stop, [?] for help
[graph_1_in_0_1 @ 0x56471f265f00] tb:1/44100 samplefmt:fltp samplerate:44100 chlayout:0x3
[h264 @ 0x56471eec0b00] Reinit context to 720x1280, pix_fmt: yuv420p
[Parsed_scale_1 @ 0x56471f842140] w:1280 h:720 flags:'bilinear' interl:0
[Parsed_scale_4 @ 0x56471f845380] w:-1 h:720 flags:'bilinear' interl:0
[Parsed_scale_6 @ 0x56471f846d80] w:1280 h:720 flags:'bilinear' interl:0
[graph 0 input from stream 0:0 @ 0x56471f84a240] w:720 h:1272 pixfmt:yuv420p tb:1/1000000 fr:30/1 sar:0/1 sws_param:flags=2
[graph 0 input from stream 1:0 @ 0x56471f84b240] w:1920 h:1080 pixfmt:rgba tb:1/25 fr:25/1 sar:2835/2835 sws_param:flags=2
[Parsed_scale_1 @ 0x56471f842140] w:720 h:1272 fmt:yuv420p sar:0/1 -> w:1280 h:720 fmt:yuv420p sar:0/1 flags:0x2
[Parsed_boxblur_2 @ 0x56471f841d40] luma_radius:36 luma_power:1 chroma_radius:18 chroma_power:1 alpha_radius:36 alpha_power:1 w:1280 chroma_w:640 h:720 chroma_h:360
[Parsed_setsar_3 @ 0x56471f844640] w:1280 h:720 sar:0/1 dar:16/9 -> sar:1/1 dar:16/9
[Parsed_scale_4 @ 0x56471f845380] w:720 h:1272 fmt:yuv420p sar:0/1 -> w:408 h:720 fmt:yuva420p sar:0/1 flags:0x2
[Parsed_setsar_5 @ 0x56471f845fc0] w:408 h:720 sar:0/1 dar:17/30 -> sar:1/1 dar:17/30
[Parsed_overlay_8 @ 0x56471f848500] main w:1280 h:720 fmt:yuv420p overlay w:408 h:720 fmt:yuva420p
[Parsed_overlay_8 @ 0x56471f848500] [framesync @ 0x56471f848628] Selected 1/1000000 time base
[Parsed_overlay_8 @ 0x56471f848500] [framesync @ 0x56471f848628] Sync level 2
[Parsed_scale_6 @ 0x56471f846d80] w:1920 h:1080 fmt:rgba sar:2835/2835 -> w:1280 h:720 fmt:yuva420p sar:1/1 flags:0x2
[Parsed_setsar_7 @ 0x56471f847840] w:1280 h:720 sar:1/1 dar:16/9 -> sar:1/1 dar:16/9
[Parsed_overlay_9 @ 0x56471f849440] main w:1280 h:720 fmt:yuv420p overlay w:1280 h:720 fmt:yuva420p
[Parsed_overlay_9 @ 0x56471f849440] [framesync @ 0x56471f849568] Selected 1/1000000 time base
[Parsed_overlay_9 @ 0x56471f849440] [framesync @ 0x56471f849568] Sync level 2
[libx264 @ 0x56471eee3780] using SAR=1/1
[libx264 @ 0x56471eee3780] using cpu capabilities: MMX2 SSE2Fast SSSE3 SSE4.2 AVX FMA3 BMI2 AVX2
[libx264 @ 0x56471eee3780] profile High, level 3.1
[libx264 @ 0x56471eee3780] 264 - core 155 r2917 0a84d98 - H.264/MPEG-4 AVC codec - Copyleft 2003-2018 - http://www.videolan.org/x264.html - options: cabac=1 ref=1 deblock=1:0:0 analyse=0x3:0x113 me=hex subme=2 psy=1 psy_rd=1.00:0.00 mixed_ref=0 me_range=16 chroma_me=1 trellis=0 8x8dct=1 cqm=0 deadzone=21,11 fast_pskip=1 chroma_qp_offset=0 threads=22 lookahead_threads=5 sliced_threads=0 nr=0 decimate=1 interlaced=0 bluray_compat=0 constrained_intra=0 bframes=3 b_pyramid=2 b_adapt=1 b_bias=0 direct=1 weightb=1 open_gop=0 weightp=1 keyint=250 keyint_min=25 scenecut=40 intra_refresh=0 rc_lookahead=10 rc=crf mbtree=1 crf=18.0 qcomp=0.60 qpmin=0 qpmax=69 qpstep=4 ip_ratio=1.40 aq=1:1.00
Output #0, mp4, to '/var/www/html/project/media/video/watermarks/lv_0_20221122180324.mp4':
  Metadata:
    major_brand     : isom
    minor_version   : 512
    compatible_brands: isomiso2avc1mp41
    Hw              : 1
                    : 
    LvMetaInfo      : {"data":{"appVersion":"7.0.0","capabilityName":"","ccTtVid":"","draftInfo":{"adjust":0,"aiMatting":0,"audioToText":0,"chroma":0,"coverTemplateId":"","curveSpeed":0,"faceEffectId":"","filterId":"","gameplayAlgorithm":"","graphs":0,"keyframe":0,"mask":0,"mi
    bitRate         : 4000000
                    : 
    copyright       : 3a69b11412c297619a7e065576883210
    maxrate         : 30000000
                    : 
    te_is_reencode  : 1
                    : 
    encoder         : Lavf58.29.100
    Stream #0:0: Video: h264 (libx264), 1 reference frame (avc1 / 0x31637661), yuv420p, 1280x720 [SAR 1:1 DAR 16:9], q=-1--1, 30 fps, 15360 tbn, 30 tbc (default)
    Metadata:
      encoder         : Lavc58.54.100 libx264
    Side data:
      cpb: bitrate max/min/avg: 0/0/0 buffer size: 0 vbv_delay: -1
    Stream #0:1(und): Audio: aac (LC) (mp4a / 0x6134706D), 44100 Hz, stereo, fltp, delay 1024, 128 kb/s (default)
    Metadata:
      handler_name    : SoundHandler
      encoder         : Lavc58.54.100 aac
[Parsed_overlay_8 @ 0x56471f848500] [framesync @ 0x56471f848628] Sync level 1
[Parsed_overlay_8 @ 0x56471f848500] [framesync @ 0x56471f848628] Sync level 0
[Parsed_overlay_9 @ 0x56471f849440] [framesync @ 0x56471f849568] Sync level 0
No more output streams to write to, finishing.
frame=  570 fps= 58 q=-1.0 Lsize=   12704kB time=00:00:18.99 bitrate=5479.1kbits/s speed=1.92x    
[AVIOContext @ 0x56471ee69280] Statistics: 0 seeks, 20 writeouts
video:12379kB audio:304kB subtitle:0kB other streams:0kB global headers:0kB muxing overhead: 0.169844%
Input file #0 (/var/www/html/project/media/video/original/lv_0_20221122180324.mp4):
  Input stream #0:0 (video): 570 packets read (8797356 bytes); 570 frames decoded; 
  Input stream #0:1 (audio): 820 packets read (305157 bytes); 818 frames decoded (837632 samples); 
  Total: 1390 packets (9102513 bytes) demuxed
Input file #1 (/var/www/html/project/static/images/templates/logo_vertical.png):
  Input stream #1:0 (video): 1 packets read (93903 bytes); 1 frames decoded; 
  Total: 1 packets (93903 bytes) demuxed
Output file #0 (/var/www/html/project/media/video/watermarks/lv_0_20221122180324.mp4):
  Output stream #0:0 (video): 570 frames encoded; 570 packets muxed (12675644 bytes); 
  Output stream #0:1 (audio): 818 frames encoded (837632 samples); 819 packets muxed (310972 bytes); 
  Total: 1389 packets (12986616 bytes) muxed
[AVIOContext @ 0x56471ee7c980] Statistics: 2 seeks, 53 writeouts
[libx264 @ 0x56471eee3780] frame I:4     Avg QP:17.48  size: 73772
[libx264 @ 0x56471eee3780] frame P:143   Avg QP:19.58  size: 36020
[libx264 @ 0x56471eee3780] frame B:423   Avg QP:21.04  size: 17090
[libx264 @ 0x56471eee3780] consecutive B-frames:  0.9%  0.4%  0.5% 98.2%
[libx264 @ 0x56471eee3780] mb I  I16..4: 16.8% 45.2% 38.0%
[libx264 @ 0x56471eee3780] mb P  I16..4: 15.6% 32.2% 13.0%  P16..4: 13.0% 10.1%  8.9%  0.0%  0.0%    skip: 7.1%
[libx264 @ 0x56471eee3780] mb B  I16..4:  5.4%  8.4%  1.9%  B16..8: 20.4% 13.2%  5.9%  direct: 8.0%  skip:36.7%  L0:41.3% L1:40.9% BI:17.8%
[libx264 @ 0x56471eee3780] 8x8 transform intra:53.0% inter:18.9%
[libx264 @ 0x56471eee3780] coded y,uvDC,uvAC intra: 44.3% 39.1% 4.5% inter: 19.1% 17.6% 0.8%
[libx264 @ 0x56471eee3780] i16 v,h,dc,p: 19% 26%  9% 46%
[libx264 @ 0x56471eee3780] i8 v,h,dc,ddl,ddr,vr,hd,vl,hu: 18% 37% 14%  5%  6%  5%  8%  4%  4%
[libx264 @ 0x56471eee3780] i4 v,h,dc,ddl,ddr,vr,hd,vl,hu: 26% 16% 10%  6%  9% 10%  7%  9%  6%
[libx264 @ 0x56471eee3780] i8c dc,h,v,p: 53% 27% 13%  7%
[libx264 @ 0x56471eee3780] Weighted P-Frames: Y:0.0% UV:0.0%
[libx264 @ 0x56471eee3780] kb/s:5336.82
[aac @ 0x56471ef47d40] Qavg: 463.236
[AVIOContext @ 0x56471ee72240] Statistics: 21438926 bytes read, 491 seeks
[AVIOContext @ 0x56471ee6ff00] Statistics: 93903 bytes read, 0 seeks
